#!OML:ASF F:\VICON\USERDATA\INSTALL\rory3\rory3.ASF
:FULLY-SPECIFIED
:DEGREES
1985
root -3.23811 17.5267 -3.42056 -2.40436 -20.327 5.32826
lowerback 6.8573 -1.9121 -1.8621
upperback 0.0734165 -2.52065 5.30326
thorax -3.45233 -1.19362 6.84471
lowerneck -22.6088 -6.96598 -12.1381
upperneck 9.2089 -9.03877 19.8168
head 8.16765 -3.03379 7.50841
rclavicle 2.94201e-014 -2.54444e-014
rhumerus 24.002 -35.3166 -27.7673
rradius 72.4908
rwrist 1.96626
rhand -44.1521 0.574064
rfingers 7.12502
rthumb -16.9677 -28.7048
lclavicle 2.94201e-014 -2.54444e-014
lhumerus 38.9976 41.0383 22.4815
lradius 62.043
lwrist 8.93078
lhand -23.428 23.1244
lfingers 7.12502
lthumb 3.02977 53.0826
rfemur -5.02688 -1.78278 4.18675
rtibia 35.6421
rfoot -22.0181 -5.72035
rtoes -11.446
lfemur -13.3944 10.9841 -19.9961
ltibia 31.6085
lfoot -9.51427 16.6312
ltoes -8.02212
1986
root -3.29607 17.5247 -3.51805 -2.20542 -21.2094 5.10277
lowerback 6.98777 -1.86222 -1.52201
upperback 0.201335 -2.42952 5.35215
thorax -3.41615 -1.15731 6.69512
lowerneck -22.4396 -6.87342 -12.1441
upperneck 9.11003 -8.87786 19.6497
head 8.066 -2.98486 7.47142
rclavicle -1.23246e-014 4.29375e-014
rhumerus 23.7069 -33.4469 -28.1205
rradius 72.2259
rwrist 2.11204
rhand -43.7547 0.834414
rfingers 7.12502
rthumb -16.585 -28.4769
lclavicle -1.23246e-014 4.29375e-014
lhumerus 38.3994 40.3272 22.6022
lradius 62.1725
lwrist 8.71336
lhand -23.1184 24.3947
lfingers 7.12502
lthumb 3.32875 54.3485
rfemur -5.60664 -2.65477 4.73931
rtibia 35.2576
rfoot -22.158 -5.66046
rtoes -12.4085
lfemur -13.7446 10.8494 -19.484
ltibia 31.6936
lfoot -9.19824 16.9289
ltoes -6.78803
1987
root -3.35258 17.5305 -3.61471 -1.93535 -22.1828 4.89789
lowerback 7.02131 -1.79551 -1.21098
upperback 0.334678 -2.31938 5.42273
thorax -3.31936 -1.11226 6.57857
lowerneck -22.3082 -6.77574 -12.1585
upperneck 8.95325 -8.70104 19.5116
head 7.95225 -2.92587 7.4474
rclavicle -3.37934e-014 4.77083e-015
rhumerus 23.421 -31.4719 -28.435
rradius 72.0023
rwrist 2.44787
rhand -43.2837 1.0059
rfingers 7.12502
rthumb -16.1316 -28.3428
lclavicle -3.37934e-014 4.77083e-015
lhumerus 37.7034 39.621 22.8328
lradius 62.4472
lwrist 8.57281
lhand -23.0403 24.772
lfingers 7.12502
lthumb 3.40415 54.7245
rfemur -6.37032 -3.39416 5.30772
rtibia 35.0276
rfoot -22.2255 -5.35179
rtoes -10.8206
lfemur -14.0842 10.7297 -19.004
ltibia 31.6701
lfoot -9.18425 17.1157
ltoes -5.95227
1988
root -3.40585 17.5395 -3.70817 -1.71595 -23.1322 4.73444
lowerback 7.11846 -1.74569 -0.935933
upperback 0.380385 -2.22952 5.51514
thorax -3.34411 -1.072 6.51434
lowerneck -22.0738 -6.682 -12.1915
upperneck 9.01646 -8.55251 19.2897
head 7.89255 -2.88589 7.39764
rclavicle 2.38542e-015 3.81667e-014
rhumerus 23.0172 -29.2221 -28.6441
rradius 71.7607
rwrist 3.04354
rhand -42.891 1.07147
rfingers 7.12502
rthumb -15.7534 -28.3074
lclavicle 2.38542e-015 3.81667e-014
lhumerus 36.8442 38.7311 23.2292
lradius 62.8582
lwrist 8.31505
lhand -23.1708 24.4567
lfingers 7.12502
lthumb 3.27817 54.4113
rfemur -7.1429 -3.95278 5.85132
rtibia 34.9599
rfoot -22.1969 -4.84299
rtoes -9.12001
lfemur -14.2792 10.5684 -18.5635
ltibia 31.5229
lfoot -9.46362 17.1236
ltoes -5.59449
1989
root -3.46062 17.55 -3.7999 -1.4923 -24.0926 4.55188
lowerback 7.21674 -1.66096 -0.703363
upperback 0.415726 -2.09495 5.63494
thorax -3.38238 -1.00831 6.49997
lowerneck -21.8667 -6.58557 -12.2852
upperneck 9.20497 -8.41662 19.1661
head 7.89012 -2.84102 7.39587
rclavicle 4.49253e-014 1.59028e-015
rhumerus 22.6261 -26.9946 -28.9213
rradius 71.4389
rwrist 3.77619
rhand -42.6163 1.05036
rfingers 7.12502
rthumb -15.4888 -28.3492
lclavicle 4.49253e-014 1.59028e-015
lhumerus 35.9026 37.7056 23.7437
lradius 63.4234
lwrist 7.94352
lhand -23.3795 24.1601
lfingers 7.12502
lthumb 3.07658 54.1176
rfemur -7.98776 -4.34472 6.46574
rtibia 35.0501
rfoot -22.1269 -4.79071
rtoes -9.71066
lfemur -14.4018 10.3556 -18.0878
ltibia 31.2553
lfoot -9.55463 17.0328
ltoes -4.77332
1990
root -3.51453 17.5603 -3.89066 -1.23681 -25.074 4.3751
lowerback 7.19934 -1.58565 -0.545715
upperback 0.5817 -1.98751 5.79426
thorax -3.21215 -0.963796 6.5635
lowerneck -21.8674 -6.45418 -12.3786
upperneck 9.20542 -8.20008 19.129
head 7.85424 -2.74612 7.43283
rclavicle -3.35946e-014 5.40694e-014
rhumerus 22.5194 -24.9257 -29.4189
rradius 71.1194
rwrist 4.5823
rhand -42.2622 1.15457
rfingers 7.12502
rthumb -15.1477 -28.271
lclavicle -3.35946e-014 5.40694e-014
lhumerus 34.872 36.7884 24.1427
lradius 63.8921
lwrist 7.81854
lhand -23.809 23.8363
lfingers 7.12502
lthumb 2.6618 53.7995
rfemur -8.92783 -4.44173 7.08502
rtibia 35.2919
rfoot -22.105 -4.89409
rtoes -10.0374
lfemur -14.4951 10.139 -17.6136
ltibia 30.875
lfoot -9.56749 16.6471
ltoes -4.34058
1991
root -3.56763 17.5677 -3.97979 -1.0669 -25.967 4.39519
lowerback 7.14034 -1.48387 -0.505543
upperback 0.694049 -1.85431 5.90482
thorax -3.07537 -0.902992 6.64041
lowerneck -21.6674 -6.38921 -12.4744
upperneck 9.10433 -8.0555 18.9624
head 7.75493 -2.70792 7.40844
rclavicle -3.26007e-014 6.67916e-014
rhumerus 22.261 -22.8237 -29.8378
rradius 70.7091
rwrist 5.43782
rhand -41.9364 1.56313
rfingers 7.12502
rthumb -14.8339 -27.8859
lclavicle -3.26007e-014 6.67916e-014
lhumerus 33.9871 35.6652 24.777
lradius 64.2556
lwrist 8.02988
lhand -23.7936 23.5385
lfingers 7.12502
lthumb 2.67667 53.5014
rfemur -9.85178 -4.26832 7.45494
rtibia 35.6628
rfoot -21.9875 -4.63811
rtoes -9.11931
lfemur -14.4817 9.91855 -17.3657
ltibia 30.3834
lfoot -9.72884 15.7363
ltoes -4.25924
1992
root -3.62182 17.575 -4.0698 -0.973715 -26.8537 4.6087
lowerback 7.08047 -1.37043 -0.673697
upperback 0.762234 -1.72061 5.97223
thorax -2.97959 -0.837708 6.79308
lowerneck -21.4725 -6.33418 -12.5115
upperneck 9.22628 -7.95905 18.7086
head 7.7291 -2.69071 7.34076
rclavicle 7.55382e-015 2.22639e-014
rhumerus 22.0076 -20.705 -30.3821
rradius 70.1813
rwrist 6.38213
rhand -41.5842 1.94801
rfingers 7.12502
rthumb -14.4946 -27.5257
lclavicle 7.55382e-015 2.22639e-014
lhumerus 33.1197 34.4785 25.5861
lradius 64.6836
lwrist 8.29296
lhand -23.4604 23.3412
lfingers 7.12502
lthumb 2.99849 53.2998
rfemur -10.8053 -3.86596 7.60061
rtibia 36.1134
rfoot -21.7236 -4.29462
rtoes -8.77791
lfemur -14.3723 9.51639 -17.3124
ltibia 29.8007
lfoot -10.035 14.6911
ltoes -3.65139
1993
root -3.6775 17.5862 -4.15815 -0.993742 -27.8073 4.82034
lowerback 7.16574 -1.26032 -0.935023
upperback 0.898016 -1.59862 6.02755
thorax -2.89206 -0.778732 6.99225
lowerneck -21.5897 -6.21482 -12.2976
upperneck 9.60406 -7.83247 18.3399
head 7.81783 -2.63757 7.19914
rclavicle 4.69132e-014 -3.18055e-014
rhumerus 21.9186 -18.6688 -31.2393
rradius 69.5385
rwrist 7.42739
rhand -41.1892 2.23867
rfingers 7.12502
rthumb -14.114 -27.262
lclavicle 4.69132e-014 -3.18055e-014
lhumerus 32.0875 33.3241 26.2801
lradius 65.1884
lwrist 8.5078
lhand -23.3796 23.1853
lfingers 7.12502
lthumb 3.07649 53.1428
rfemur -11.6208 -3.12953 7.72393
rtibia 36.5431
rfoot -21.5059 -3.88272
rtoes -7.97696
lfemur -14.039 8.8235 -17.215
ltibia 29.1546
lfoot -10.5105 13.9692
ltoes -3.38854
1994
root -3.7299 17.5972 -4.24706 -1.11008 -28.7401 5.04975
lowerback 7.42797 -1.12475 -1.16815
upperback 1.03404 -1.43794 6.02683
thorax -2.91177 -0.698576 7.11828
lowerneck -21.6464 -6.11533 -11.9995
upperneck 9.88858 -7.74888 17.9615
head 7.87086 -2.60789 7.0304
rclavicle -2.8625e-014 9.54166e-014
rhumerus 21.6222 -16.7155 -32.1872
rradius 68.9974
rwrist 8.35255
rhand -40.7431 2.71686
rfingers 7.12502
rthumb -13.684 -26.8133
lclavicle -2.8625e-014 9.54166e-014
lhumerus 31.1166 31.9825 27.0531
lradius 65.6941
lwrist 8.64648
lhand -23.5856 23.5517
lfingers 7.12502
lthumb 2.87753 53.512
rfemur -12.2707 -2.16659 7.81011
rtibia 36.8765
rfoot -21.3647 -3.44312
rtoes -6.52738
lfemur -13.6541 7.89837 -17.0876
ltibia 28.4637
lfoot -11.0378 13.4552
ltoes -3.58083
1995
root -3.77939 17.6091 -4.33235 -1.15696 -29.524 5.26385
lowerback 7.5028 -1.06812 -1.24831
upperback 1.21645 -1.37844 5.96657
thorax -2.77096 -0.67558 7.092
lowerneck -21.7766 -6.02862 -11.8119
upperneck 10.1466 -7.68497 17.8279
head 7.95146 -2.56931 6.9661
rclavicle -6.36111e-015 1.90833e-014
rhumerus 21.2989 -14.807 -33.3114
rradius 68.5523
rwrist 9.26374
rhand -40.2921 2.87615
rfingers 7.12502
rthumb -13.2493 -26.6828
lclavicle -6.36111e-015 1.90833e-014
lhumerus 30.2384 30.6824 27.8699
lradius 66.2106
lwrist 9.18741
lhand -23.4142 24.321
lfingers 7.12502
lthumb 3.04309 54.279
rfemur -12.8841 -1.30474 7.92525
rtibia 37.1019
rfoot -21.1615 -3.34949
rtoes -6.62372
lfemur -13.4205 6.61947 -16.9433
ltibia 27.7468
lfoot -11.4399 13.0747
ltoes -2.81914
1996
root -3.82771 17.6207 -4.40895 -1.24696 -30.2669 5.54604
lowerback 7.52025 -1.06904 -1.35181
upperback 1.38444 -1.39785 5.91522
thorax -2.60197 -0.692449 7.09466
lowerneck -21.949 -5.91331 -11.7517
upperneck 10.5129 -7.57479 17.8032
head 8.07904 -2.50055 6.97402
rclavicle -6.63941e-014 -7.31528e-014
rhumerus 21.0708 -12.8816 -34.5883
rradius 68.0753
rwrist 10.1618
rhand -39.8207 2.58876
rfingers 7.12502
rthumb -12.7949 -26.9991
lclavicle -6.63941e-014 -7.31528e-014
lhumerus 28.9616 29.2732 28.3397
lradius 66.788
lwrist 10.1148
lhand -22.9953 24.4012
lfingers 7.12502
lthumb 3.44766 54.353
rfemur -13.3774 -0.66217 7.95545
rtibia 37.2135
rfoot -20.9526 -3.16065
rtoes -7.10251
lfemur -13.1442 5.30746 -16.9051
ltibia 27.0368
lfoot -11.8087 12.8223
ltoes -2.74494
1997
root -3.87434 17.6292 -4.48145 -1.41032 -30.9234 5.95805
lowerback 7.62188 -1.07422 -1.59915
upperback 1.43871 -1.42646 5.89753
thorax -2.59258 -0.706635 7.22421
lowerneck -21.8808 -5.80837 -11.8764
upperneck 10.8583 -7.45126 17.83
head 8.16645 -2.44088 7.03464
rclavicle -1.21656e-013 1.90833e-014
rhumerus 20.7019 -10.9369 -35.7552
rradius 67.5031
rwrist 10.8997
rhand -39.3535 2.6428
rfingers 7.12502
rthumb -12.3445 -26.9728
lclavicle -1.21656e-013 1.90833e-014
lhumerus 27.4425 27.5827 28.7383
lradius 67.2754
lwrist 10.76
lhand -23.0046 24.275
lfingers 7.12502
lthumb 3.43866 54.227
rfemur -13.7797 -0.130663 7.83755
rtibia 37.2434
rfoot -20.9618 -2.73339
rtoes -6.22703
lfemur -12.8279 4.03625 -17.0394
ltibia 26.324
lfoot -12.1079 12.5341
ltoes -4.492
1998
root -3.91997 17.6401 -4.55561 -1.47489 -31.4938 6.2203
lowerback 7.73099 -1.11335 -1.76849
upperback 1.44985 -1.49122 5.95625
thorax -2.62687 -0.737781 7.39608
lowerneck -21.6017 -5.67355 -11.9624
upperneck 11.0612 -7.27529 17.739
head 8.15356 -2.37818 7.04895
rclavicle 6.75868e-015 -1.90833e-014
rhumerus 20.2969 -9.05604 -37.0039
rradius 66.8682
rwrist 11.7788
rhand -38.9024 2.76326
rfingers 7.12502
rthumb -11.9095 -26.878
lclavicle 6.75868e-015 -1.90833e-014
lhumerus 26.0248 25.9848 29.4246
lradius 67.7512
lwrist 11.6679
lhand -22.5839 24.8088
lfingers 7.12502
lthumb 3.84488 54.7538
rfemur -14.1467 0.305686 7.8919
rtibia 37.2246
rfoot -21.0229 -2.47107
rtoes -5.26808
lfemur -12.583 2.79005 -17.0138
ltibia 25.6058
lfoot -12.2939 11.7801
ltoes -5.68236
